<svg width="20" height="20" viewBox="0 0 20 20" fill="none" xmlns="http://www.w3.org/2000/svg">
<g id="hand">
<path id="Vector" d="M15 6.25L15.7656 6.3776C16.7081 6.53468 17.3258 7.45038 17.1186 8.38317L16.6786 10.3631C16.6707 10.3987 16.6667 10.4353 16.6667 10.4718C16.6667 12.6587 16.6667 14.5833 16.6667 14.5833C16.6667 16.25 15.3333 17.9167 13.3333 17.9167C11.7716 17.9167 9.17658 17.9167 7.84982 17.9167C7.36328 17.9167 6.9011 17.7041 6.58446 17.3347L2.79406 12.9125C2.38176 12.4315 2.36979 11.7253 2.76556 11.2306C3.27865 10.5892 4.24686 10.5678 4.78771 11.1859L6.66666 13.3333V10.4167" stroke="#8C8C8C" stroke-width="1.5" stroke-linecap="round" stroke-linejoin="round"/>
<path id="Vector_2" d="M7.49999 4.16667L6.84138 4.27644C5.8599 4.44002 5.23948 5.42157 5.51284 6.3783L6.66666 10.4167" stroke="#8C8C8C" stroke-width="1.5" stroke-linecap="round" stroke-linejoin="round"/>
<path id="Vector_3" d="M9.16666 10.4167L7.43552 3.83832C7.24649 3.12 7.71571 2.3946 8.44841 2.27249C9.09141 2.16532 9.71024 2.56561 9.87616 3.19605L11.6667 10" stroke="#8C8C8C" stroke-width="1.5" stroke-linecap="round" stroke-linejoin="round"/>
<path id="Vector_4" d="M14.1667 10.4167L15 6.25L15.2063 5.01263C15.3224 4.3153 14.8513 3.65578 14.154 3.53956C13.4667 3.425 12.8139 3.88136 12.6855 4.56629L11.6667 10" stroke="#8C8C8C" stroke-width="1.5" stroke-linecap="round" stroke-linejoin="round"/>
</g>
</svg>
