<svg width="32" height="32" viewBox="0 0 32 32" fill="none" xmlns="http://www.w3.org/2000/svg">
<path id="logo" d="M0 0H13.3832V32H0V0ZM17.0218 14.5892C17.0218 13.1957 17.7861 12.1298 19.3146 11.3912C20.677 10.7363 22.4299 10.4089 24.5732 10.4089C27.9128 10.4089 30.1807 11.1683 31.3769 12.6871C31.7923 13.2166 32 13.8506 32 14.5892C32 15.9965 31.2856 17.0764 29.8567 17.8289C28.5607 18.5256 26.8577 18.8739 24.7477 18.8739C21.3749 18.8739 19.0239 18.0797 17.6947 16.4912C17.2461 15.9617 17.0218 15.3277 17.0218 14.5892ZM17.9688 21.3612H20.2118C26.3261 21.3612 29.9813 23.096 31.1776 26.5656C31.5597 27.7083 31.7508 29.0181 31.7508 30.4951V32H17.9688V21.3612Z" fill="#8C8C8C"/>
</svg>
